%TF.GenerationSoftware,KiCad,Pcbnew,7.0.6-7.0.6~ubuntu23.04.1*%
%TF.CreationDate,2023-08-05T23:14:15-04:00*%
%TF.ProjectId,Koneko40StaggerPlate,4b6f6e65-6b6f-4343-9053-746167676572,rev?*%
%TF.SameCoordinates,Original*%
%TF.FileFunction,Profile,NP*%
%FSLAX46Y46*%
G04 Gerber Fmt 4.6, Leading zero omitted, Abs format (unit mm)*
G04 Created by KiCad (PCBNEW 7.0.6-7.0.6~ubuntu23.04.1) date 2023-08-05 23:14:15*
%MOMM*%
%LPD*%
G01*
G04 APERTURE LIST*
%TA.AperFunction,Profile*%
%ADD10C,0.200000*%
%TD*%
G04 APERTURE END LIST*
D10*
X258365600Y-53387500D02*
G75*
G03*
X257365625Y-52387500I-1000000J0D01*
G01*
X30765625Y-52387525D02*
G75*
G03*
X29765625Y-53387500I-25J-999975D01*
G01*
X257365625Y-128587525D02*
G75*
G03*
X258365625Y-127587500I-25J1000025D01*
G01*
X29765600Y-127587500D02*
G75*
G03*
X30765625Y-128587500I1000000J0D01*
G01*
X258365625Y-127587500D02*
X258365625Y-53387500D01*
X29765625Y-127587500D02*
X29765625Y-53387500D01*
X30765625Y-52387500D02*
X257365625Y-52387500D01*
X30765625Y-128587500D02*
X257365625Y-128587500D01*
X255340625Y-126062500D02*
G75*
G03*
X255840625Y-125562500I0J500000D01*
G01*
X241840625Y-125562500D02*
G75*
G03*
X242340625Y-126062500I500000J0D01*
G01*
X255840625Y-112562500D02*
G75*
G03*
X255340625Y-112062500I-500000J0D01*
G01*
X242340625Y-112062500D02*
G75*
G03*
X241840625Y-112562500I0J-500000D01*
G01*
X255840625Y-112562500D02*
X255840625Y-125562500D01*
X241840625Y-112562500D02*
X241840625Y-125562500D01*
X242340625Y-126062500D02*
X255340625Y-126062500D01*
X242340625Y-112062500D02*
X255340625Y-112062500D01*
X255340625Y-126062500D02*
G75*
G03*
X255840625Y-125562500I0J500000D01*
G01*
X241840625Y-125562500D02*
G75*
G03*
X242340625Y-126062500I500000J0D01*
G01*
X255840625Y-112562500D02*
G75*
G03*
X255340625Y-112062500I-500000J0D01*
G01*
X242340625Y-112062500D02*
G75*
G03*
X241840625Y-112562500I0J-500000D01*
G01*
X255840625Y-112562500D02*
X255840625Y-125562500D01*
X241840625Y-112562500D02*
X241840625Y-125562500D01*
X242340625Y-126062500D02*
X255340625Y-126062500D01*
X242340625Y-112062500D02*
X255340625Y-112062500D01*
X255340625Y-126062500D02*
G75*
G03*
X255840625Y-125562500I0J500000D01*
G01*
X241840625Y-125562500D02*
G75*
G03*
X242340625Y-126062500I500000J0D01*
G01*
X255840625Y-112562500D02*
G75*
G03*
X255340625Y-112062500I-500000J0D01*
G01*
X242340625Y-112062500D02*
G75*
G03*
X241840625Y-112562500I0J-500000D01*
G01*
X255840625Y-112562500D02*
X255840625Y-125562500D01*
X241840625Y-112562500D02*
X241840625Y-125562500D01*
X242340625Y-126062500D02*
X255340625Y-126062500D01*
X242340625Y-112062500D02*
X255340625Y-112062500D01*
X236290625Y-126062500D02*
G75*
G03*
X236790625Y-125562500I0J500000D01*
G01*
X222790625Y-125562500D02*
G75*
G03*
X223290625Y-126062500I500000J0D01*
G01*
X236790625Y-112562500D02*
G75*
G03*
X236290625Y-112062500I-500000J0D01*
G01*
X223290625Y-112062500D02*
G75*
G03*
X222790625Y-112562500I0J-500000D01*
G01*
X236790625Y-112562500D02*
X236790625Y-125562500D01*
X222790625Y-112562500D02*
X222790625Y-125562500D01*
X223290625Y-126062500D02*
X236290625Y-126062500D01*
X223290625Y-112062500D02*
X236290625Y-112062500D01*
X231528125Y-126062500D02*
G75*
G03*
X232028125Y-125562500I0J500000D01*
G01*
X218028125Y-125562500D02*
G75*
G03*
X218528125Y-126062500I500000J0D01*
G01*
X232028125Y-112562500D02*
G75*
G03*
X231528125Y-112062500I-500000J0D01*
G01*
X218528125Y-112062500D02*
G75*
G03*
X218028125Y-112562500I0J-500000D01*
G01*
X232028125Y-112562500D02*
X232028125Y-125562500D01*
X218028125Y-112562500D02*
X218028125Y-125562500D01*
X218528125Y-126062500D02*
X231528125Y-126062500D01*
X218528125Y-112062500D02*
X231528125Y-112062500D01*
X217240625Y-126062500D02*
G75*
G03*
X217740625Y-125562500I0J500000D01*
G01*
X203740625Y-125562500D02*
G75*
G03*
X204240625Y-126062500I500000J0D01*
G01*
X217740625Y-112562500D02*
G75*
G03*
X217240625Y-112062500I-500000J0D01*
G01*
X204240625Y-112062500D02*
G75*
G03*
X203740625Y-112562500I0J-500000D01*
G01*
X217740625Y-112562500D02*
X217740625Y-125562500D01*
X203740625Y-112562500D02*
X203740625Y-125562500D01*
X204240625Y-126062500D02*
X217240625Y-126062500D01*
X204240625Y-112062500D02*
X217240625Y-112062500D01*
X207715625Y-126062500D02*
G75*
G03*
X208215625Y-125562500I0J500000D01*
G01*
X194215625Y-125562500D02*
G75*
G03*
X194715625Y-126062500I500000J0D01*
G01*
X208215625Y-112562500D02*
G75*
G03*
X207715625Y-112062500I-500000J0D01*
G01*
X194715625Y-112062500D02*
G75*
G03*
X194215625Y-112562500I0J-500000D01*
G01*
X208215625Y-112562500D02*
X208215625Y-125562500D01*
X194215625Y-112562500D02*
X194215625Y-125562500D01*
X194715625Y-126062500D02*
X207715625Y-126062500D01*
X194715625Y-112062500D02*
X207715625Y-112062500D01*
X155321375Y-110062450D02*
G75*
G03*
X154821375Y-110562500I50J-500050D01*
G01*
X161821325Y-110562500D02*
G75*
G03*
X161321375Y-110062500I-500000J0D01*
G01*
X154821425Y-124562500D02*
G75*
G03*
X155321375Y-125062500I500000J0D01*
G01*
X161321375Y-125062550D02*
G75*
G03*
X161821375Y-124562500I-50J500050D01*
G01*
X154821375Y-124562500D02*
X154821375Y-110562500D01*
X161821375Y-124562500D02*
X161821375Y-110562500D01*
X161321375Y-110062500D02*
X155321375Y-110062500D01*
X161321375Y-125062500D02*
X155321375Y-125062500D01*
X179197375Y-110062450D02*
G75*
G03*
X178697375Y-110562500I50J-500050D01*
G01*
X185697325Y-110562500D02*
G75*
G03*
X185197375Y-110062500I-500000J0D01*
G01*
X178697425Y-124562500D02*
G75*
G03*
X179197375Y-125062500I500000J0D01*
G01*
X185197375Y-125062550D02*
G75*
G03*
X185697375Y-124562500I-50J500050D01*
G01*
X178697375Y-124562500D02*
X178697375Y-110562500D01*
X185697375Y-124562500D02*
X185697375Y-110562500D01*
X185197375Y-110062500D02*
X179197375Y-110062500D01*
X185197375Y-125062500D02*
X179197375Y-125062500D01*
X176759375Y-126062550D02*
G75*
G03*
X177259375Y-125562500I-50J500050D01*
G01*
X163259425Y-125562500D02*
G75*
G03*
X163759375Y-126062500I500000J0D01*
G01*
X177259325Y-112562500D02*
G75*
G03*
X176759375Y-112062500I-500000J0D01*
G01*
X163759375Y-112062450D02*
G75*
G03*
X163259375Y-112562500I50J-500050D01*
G01*
X177259375Y-112562500D02*
X177259375Y-125562500D01*
X163259375Y-112562500D02*
X163259375Y-125562500D01*
X163759375Y-126062500D02*
X176759375Y-126062500D01*
X163759375Y-112062500D02*
X176759375Y-112062500D01*
X150590625Y-110062500D02*
G75*
G03*
X150090625Y-110562500I0J-500000D01*
G01*
X157090625Y-110562500D02*
G75*
G03*
X156590625Y-110062500I-500000J0D01*
G01*
X150090625Y-124562500D02*
G75*
G03*
X150590625Y-125062500I500000J0D01*
G01*
X156590625Y-125062500D02*
G75*
G03*
X157090625Y-124562500I0J500000D01*
G01*
X150090625Y-124562500D02*
X150090625Y-110562500D01*
X157090625Y-124562500D02*
X157090625Y-110562500D01*
X156590625Y-110062500D02*
X150590625Y-110062500D01*
X156590625Y-125062500D02*
X150590625Y-125062500D01*
X188690625Y-110062500D02*
G75*
G03*
X188190625Y-110562500I0J-500000D01*
G01*
X195190625Y-110562500D02*
G75*
G03*
X194690625Y-110062500I-500000J0D01*
G01*
X188190625Y-124562500D02*
G75*
G03*
X188690625Y-125062500I500000J0D01*
G01*
X194690625Y-125062500D02*
G75*
G03*
X195190625Y-124562500I0J500000D01*
G01*
X188190625Y-124562500D02*
X188190625Y-110562500D01*
X195190625Y-124562500D02*
X195190625Y-110562500D01*
X194690625Y-110062500D02*
X188690625Y-110062500D01*
X194690625Y-125062500D02*
X188690625Y-125062500D01*
X179140625Y-126062500D02*
G75*
G03*
X179640625Y-125562500I0J500000D01*
G01*
X165640625Y-125562500D02*
G75*
G03*
X166140625Y-126062500I500000J0D01*
G01*
X179640625Y-112562500D02*
G75*
G03*
X179140625Y-112062500I-500000J0D01*
G01*
X166140625Y-112062500D02*
G75*
G03*
X165640625Y-112562500I0J-500000D01*
G01*
X179640625Y-112562500D02*
X179640625Y-125562500D01*
X165640625Y-112562500D02*
X165640625Y-125562500D01*
X166140625Y-126062500D02*
X179140625Y-126062500D01*
X166140625Y-112062500D02*
X179140625Y-112062500D01*
X107696375Y-110062450D02*
G75*
G03*
X107196375Y-110562500I50J-500050D01*
G01*
X114196325Y-110562500D02*
G75*
G03*
X113696375Y-110062500I-500000J0D01*
G01*
X107196425Y-124562500D02*
G75*
G03*
X107696375Y-125062500I500000J0D01*
G01*
X113696375Y-125062550D02*
G75*
G03*
X114196375Y-124562500I-50J500050D01*
G01*
X107196375Y-124562500D02*
X107196375Y-110562500D01*
X114196375Y-124562500D02*
X114196375Y-110562500D01*
X113696375Y-110062500D02*
X107696375Y-110062500D01*
X113696375Y-125062500D02*
X107696375Y-125062500D01*
X131572375Y-110062450D02*
G75*
G03*
X131072375Y-110562500I50J-500050D01*
G01*
X138072325Y-110562500D02*
G75*
G03*
X137572375Y-110062500I-500000J0D01*
G01*
X131072425Y-124562500D02*
G75*
G03*
X131572375Y-125062500I500000J0D01*
G01*
X137572375Y-125062550D02*
G75*
G03*
X138072375Y-124562500I-50J500050D01*
G01*
X131072375Y-124562500D02*
X131072375Y-110562500D01*
X138072375Y-124562500D02*
X138072375Y-110562500D01*
X137572375Y-110062500D02*
X131572375Y-110062500D01*
X137572375Y-125062500D02*
X131572375Y-125062500D01*
X129134375Y-126062550D02*
G75*
G03*
X129634375Y-125562500I-50J500050D01*
G01*
X115634425Y-125562500D02*
G75*
G03*
X116134375Y-126062500I500000J0D01*
G01*
X129634325Y-112562500D02*
G75*
G03*
X129134375Y-112062500I-500000J0D01*
G01*
X116134375Y-112062450D02*
G75*
G03*
X115634375Y-112562500I50J-500050D01*
G01*
X129634375Y-112562500D02*
X129634375Y-125562500D01*
X115634375Y-112562500D02*
X115634375Y-125562500D01*
X116134375Y-126062500D02*
X129134375Y-126062500D01*
X116134375Y-112062500D02*
X129134375Y-112062500D01*
X93440625Y-110062500D02*
G75*
G03*
X92940625Y-110562500I0J-500000D01*
G01*
X99940625Y-110562500D02*
G75*
G03*
X99440625Y-110062500I-500000J0D01*
G01*
X92940625Y-124562500D02*
G75*
G03*
X93440625Y-125062500I500000J0D01*
G01*
X99440625Y-125062500D02*
G75*
G03*
X99940625Y-124562500I0J500000D01*
G01*
X92940625Y-124562500D02*
X92940625Y-110562500D01*
X99940625Y-124562500D02*
X99940625Y-110562500D01*
X99440625Y-110062500D02*
X93440625Y-110062500D01*
X99440625Y-125062500D02*
X93440625Y-125062500D01*
X188690625Y-110062500D02*
G75*
G03*
X188190625Y-110562500I0J-500000D01*
G01*
X195190625Y-110562500D02*
G75*
G03*
X194690625Y-110062500I-500000J0D01*
G01*
X188190625Y-124562500D02*
G75*
G03*
X188690625Y-125062500I500000J0D01*
G01*
X194690625Y-125062500D02*
G75*
G03*
X195190625Y-124562500I0J500000D01*
G01*
X188190625Y-124562500D02*
X188190625Y-110562500D01*
X195190625Y-124562500D02*
X195190625Y-110562500D01*
X194690625Y-110062500D02*
X188690625Y-110062500D01*
X194690625Y-125062500D02*
X188690625Y-125062500D01*
X150565625Y-126062500D02*
G75*
G03*
X151065625Y-125562500I0J500000D01*
G01*
X137065625Y-125562500D02*
G75*
G03*
X137565625Y-126062500I500000J0D01*
G01*
X151065625Y-112562500D02*
G75*
G03*
X150565625Y-112062500I-500000J0D01*
G01*
X137565625Y-112062500D02*
G75*
G03*
X137065625Y-112562500I0J-500000D01*
G01*
X151065625Y-112562500D02*
X151065625Y-125562500D01*
X137065625Y-112562500D02*
X137065625Y-125562500D01*
X137565625Y-126062500D02*
X150565625Y-126062500D01*
X137565625Y-112062500D02*
X150565625Y-112062500D01*
X93440625Y-110062500D02*
G75*
G03*
X92940625Y-110562500I0J-500000D01*
G01*
X99940625Y-110562500D02*
G75*
G03*
X99440625Y-110062500I-500000J0D01*
G01*
X92940625Y-124562500D02*
G75*
G03*
X93440625Y-125062500I500000J0D01*
G01*
X99440625Y-125062500D02*
G75*
G03*
X99940625Y-124562500I0J500000D01*
G01*
X92940625Y-124562500D02*
X92940625Y-110562500D01*
X99940625Y-124562500D02*
X99940625Y-110562500D01*
X99440625Y-110062500D02*
X93440625Y-110062500D01*
X99440625Y-125062500D02*
X93440625Y-125062500D01*
X131540625Y-110062500D02*
G75*
G03*
X131040625Y-110562500I0J-500000D01*
G01*
X138040625Y-110562500D02*
G75*
G03*
X137540625Y-110062500I-500000J0D01*
G01*
X131040625Y-124562500D02*
G75*
G03*
X131540625Y-125062500I500000J0D01*
G01*
X137540625Y-125062500D02*
G75*
G03*
X138040625Y-124562500I0J500000D01*
G01*
X131040625Y-124562500D02*
X131040625Y-110562500D01*
X138040625Y-124562500D02*
X138040625Y-110562500D01*
X137540625Y-110062500D02*
X131540625Y-110062500D01*
X137540625Y-125062500D02*
X131540625Y-125062500D01*
X121990625Y-126062500D02*
G75*
G03*
X122490625Y-125562500I0J500000D01*
G01*
X108490625Y-125562500D02*
G75*
G03*
X108990625Y-126062500I500000J0D01*
G01*
X122490625Y-112562500D02*
G75*
G03*
X121990625Y-112062500I-500000J0D01*
G01*
X108990625Y-112062500D02*
G75*
G03*
X108490625Y-112562500I0J-500000D01*
G01*
X122490625Y-112562500D02*
X122490625Y-125562500D01*
X108490625Y-112562500D02*
X108490625Y-125562500D01*
X108990625Y-126062500D02*
X121990625Y-126062500D01*
X108990625Y-112062500D02*
X121990625Y-112062500D01*
X93415625Y-126062500D02*
G75*
G03*
X93915625Y-125562500I0J500000D01*
G01*
X79915625Y-125562500D02*
G75*
G03*
X80415625Y-126062500I500000J0D01*
G01*
X93915625Y-112562500D02*
G75*
G03*
X93415625Y-112062500I-500000J0D01*
G01*
X80415625Y-112062500D02*
G75*
G03*
X79915625Y-112562500I0J-500000D01*
G01*
X93915625Y-112562500D02*
X93915625Y-125562500D01*
X79915625Y-112562500D02*
X79915625Y-125562500D01*
X80415625Y-126062500D02*
X93415625Y-126062500D01*
X80415625Y-112062500D02*
X93415625Y-112062500D01*
X83915625Y-110062500D02*
G75*
G03*
X83415625Y-110562500I0J-500000D01*
G01*
X90415625Y-110562500D02*
G75*
G03*
X89915625Y-110062500I-500000J0D01*
G01*
X83415625Y-124562500D02*
G75*
G03*
X83915625Y-125062500I500000J0D01*
G01*
X89915625Y-125062500D02*
G75*
G03*
X90415625Y-124562500I0J500000D01*
G01*
X83415625Y-124562500D02*
X83415625Y-110562500D01*
X90415625Y-124562500D02*
X90415625Y-110562500D01*
X89915625Y-110062500D02*
X83915625Y-110062500D01*
X89915625Y-125062500D02*
X83915625Y-125062500D01*
X198215625Y-110062500D02*
G75*
G03*
X197715625Y-110562500I0J-500000D01*
G01*
X204715625Y-110562500D02*
G75*
G03*
X204215625Y-110062500I-500000J0D01*
G01*
X197715625Y-124562500D02*
G75*
G03*
X198215625Y-125062500I500000J0D01*
G01*
X204215625Y-125062500D02*
G75*
G03*
X204715625Y-124562500I0J500000D01*
G01*
X197715625Y-124562500D02*
X197715625Y-110562500D01*
X204715625Y-124562500D02*
X204715625Y-110562500D01*
X204215625Y-110062500D02*
X198215625Y-110062500D01*
X204215625Y-125062500D02*
X198215625Y-125062500D01*
X150565625Y-126062500D02*
G75*
G03*
X151065625Y-125562500I0J500000D01*
G01*
X137065625Y-125562500D02*
G75*
G03*
X137565625Y-126062500I500000J0D01*
G01*
X151065625Y-112562500D02*
G75*
G03*
X150565625Y-112062500I-500000J0D01*
G01*
X137565625Y-112062500D02*
G75*
G03*
X137065625Y-112562500I0J-500000D01*
G01*
X151065625Y-112562500D02*
X151065625Y-125562500D01*
X137065625Y-112562500D02*
X137065625Y-125562500D01*
X137565625Y-126062500D02*
X150565625Y-126062500D01*
X137565625Y-112062500D02*
X150565625Y-112062500D01*
X83890625Y-126062500D02*
G75*
G03*
X84390625Y-125562500I0J500000D01*
G01*
X70390625Y-125562500D02*
G75*
G03*
X70890625Y-126062500I500000J0D01*
G01*
X84390625Y-112562500D02*
G75*
G03*
X83890625Y-112062500I-500000J0D01*
G01*
X70890625Y-112062500D02*
G75*
G03*
X70390625Y-112562500I0J-500000D01*
G01*
X84390625Y-112562500D02*
X84390625Y-125562500D01*
X70390625Y-112562500D02*
X70390625Y-125562500D01*
X70890625Y-126062500D02*
X83890625Y-126062500D01*
X70890625Y-112062500D02*
X83890625Y-112062500D01*
X74390625Y-110062500D02*
G75*
G03*
X73890625Y-110562500I0J-500000D01*
G01*
X80890625Y-110562500D02*
G75*
G03*
X80390625Y-110062500I-500000J0D01*
G01*
X73890625Y-124562500D02*
G75*
G03*
X74390625Y-125062500I500000J0D01*
G01*
X80390625Y-125062500D02*
G75*
G03*
X80890625Y-124562500I0J500000D01*
G01*
X73890625Y-124562500D02*
X73890625Y-110562500D01*
X80890625Y-124562500D02*
X80890625Y-110562500D01*
X80390625Y-110062500D02*
X74390625Y-110062500D01*
X80390625Y-125062500D02*
X74390625Y-125062500D01*
X207740625Y-110062500D02*
G75*
G03*
X207240625Y-110562500I0J-500000D01*
G01*
X214240625Y-110562500D02*
G75*
G03*
X213740625Y-110062500I-500000J0D01*
G01*
X207240625Y-124562500D02*
G75*
G03*
X207740625Y-125062500I500000J0D01*
G01*
X213740625Y-125062500D02*
G75*
G03*
X214240625Y-124562500I0J500000D01*
G01*
X207240625Y-124562500D02*
X207240625Y-110562500D01*
X214240625Y-124562500D02*
X214240625Y-110562500D01*
X213740625Y-110062500D02*
X207740625Y-110062500D01*
X213740625Y-125062500D02*
X207740625Y-125062500D01*
X150565625Y-126062500D02*
G75*
G03*
X151065625Y-125562500I0J500000D01*
G01*
X137065625Y-125562500D02*
G75*
G03*
X137565625Y-126062500I500000J0D01*
G01*
X151065625Y-112562500D02*
G75*
G03*
X150565625Y-112062500I-500000J0D01*
G01*
X137565625Y-112062500D02*
G75*
G03*
X137065625Y-112562500I0J-500000D01*
G01*
X151065625Y-112562500D02*
X151065625Y-125562500D01*
X137065625Y-112562500D02*
X137065625Y-125562500D01*
X137565625Y-126062500D02*
X150565625Y-126062500D01*
X137565625Y-112062500D02*
X150565625Y-112062500D01*
X64840625Y-126062500D02*
G75*
G03*
X65340625Y-125562500I0J500000D01*
G01*
X51340625Y-125562500D02*
G75*
G03*
X51840625Y-126062500I500000J0D01*
G01*
X65340625Y-112562500D02*
G75*
G03*
X64840625Y-112062500I-500000J0D01*
G01*
X51840625Y-112062500D02*
G75*
G03*
X51340625Y-112562500I0J-500000D01*
G01*
X65340625Y-112562500D02*
X65340625Y-125562500D01*
X51340625Y-112562500D02*
X51340625Y-125562500D01*
X51840625Y-126062500D02*
X64840625Y-126062500D01*
X51840625Y-112062500D02*
X64840625Y-112062500D01*
X69603125Y-126062500D02*
G75*
G03*
X70103125Y-125562500I0J500000D01*
G01*
X56103125Y-125562500D02*
G75*
G03*
X56603125Y-126062500I500000J0D01*
G01*
X70103125Y-112562500D02*
G75*
G03*
X69603125Y-112062500I-500000J0D01*
G01*
X56603125Y-112062500D02*
G75*
G03*
X56103125Y-112562500I0J-500000D01*
G01*
X70103125Y-112562500D02*
X70103125Y-125562500D01*
X56103125Y-112562500D02*
X56103125Y-125562500D01*
X56603125Y-126062500D02*
X69603125Y-126062500D01*
X56603125Y-112062500D02*
X69603125Y-112062500D01*
X45790625Y-126062500D02*
G75*
G03*
X46290625Y-125562500I0J500000D01*
G01*
X32290625Y-125562500D02*
G75*
G03*
X32790625Y-126062500I500000J0D01*
G01*
X46290625Y-112562500D02*
G75*
G03*
X45790625Y-112062500I-500000J0D01*
G01*
X32790625Y-112062500D02*
G75*
G03*
X32290625Y-112562500I0J-500000D01*
G01*
X46290625Y-112562500D02*
X46290625Y-125562500D01*
X32290625Y-112562500D02*
X32290625Y-125562500D01*
X32790625Y-126062500D02*
X45790625Y-126062500D01*
X32790625Y-112062500D02*
X45790625Y-112062500D01*
X45790625Y-126062500D02*
G75*
G03*
X46290625Y-125562500I0J500000D01*
G01*
X32290625Y-125562500D02*
G75*
G03*
X32790625Y-126062500I500000J0D01*
G01*
X46290625Y-112562500D02*
G75*
G03*
X45790625Y-112062500I-500000J0D01*
G01*
X32790625Y-112062500D02*
G75*
G03*
X32290625Y-112562500I0J-500000D01*
G01*
X46290625Y-112562500D02*
X46290625Y-125562500D01*
X32290625Y-112562500D02*
X32290625Y-125562500D01*
X32790625Y-126062500D02*
X45790625Y-126062500D01*
X32790625Y-112062500D02*
X45790625Y-112062500D01*
X45790625Y-126062500D02*
G75*
G03*
X46290625Y-125562500I0J500000D01*
G01*
X32290625Y-125562500D02*
G75*
G03*
X32790625Y-126062500I500000J0D01*
G01*
X46290625Y-112562500D02*
G75*
G03*
X45790625Y-112062500I-500000J0D01*
G01*
X32790625Y-112062500D02*
G75*
G03*
X32290625Y-112562500I0J-500000D01*
G01*
X46290625Y-112562500D02*
X46290625Y-125562500D01*
X32290625Y-112562500D02*
X32290625Y-125562500D01*
X32790625Y-126062500D02*
X45790625Y-126062500D01*
X32790625Y-112062500D02*
X45790625Y-112062500D01*
X252959375Y-107012550D02*
G75*
G03*
X253459375Y-106512500I-50J500050D01*
G01*
X239459425Y-106512500D02*
G75*
G03*
X239959375Y-107012500I500000J0D01*
G01*
X253459325Y-93512500D02*
G75*
G03*
X252959375Y-93012500I-500000J0D01*
G01*
X239959375Y-93012450D02*
G75*
G03*
X239459375Y-93512500I50J-500050D01*
G01*
X253459375Y-93512500D02*
X253459375Y-106512500D01*
X239459375Y-93512500D02*
X239459375Y-106512500D01*
X239959375Y-107012500D02*
X252959375Y-107012500D01*
X239959375Y-93012500D02*
X252959375Y-93012500D01*
X221996375Y-91012450D02*
G75*
G03*
X221496375Y-91512500I50J-500050D01*
G01*
X228496325Y-91512500D02*
G75*
G03*
X227996375Y-91012500I-500000J0D01*
G01*
X221496425Y-105512500D02*
G75*
G03*
X221996375Y-106012500I500000J0D01*
G01*
X227996375Y-106012550D02*
G75*
G03*
X228496375Y-105512500I-50J500050D01*
G01*
X221496375Y-105512500D02*
X221496375Y-91512500D01*
X228496375Y-105512500D02*
X228496375Y-91512500D01*
X227996375Y-91012500D02*
X221996375Y-91012500D01*
X227996375Y-106012500D02*
X221996375Y-106012500D01*
X245872375Y-91012450D02*
G75*
G03*
X245372375Y-91512500I50J-500050D01*
G01*
X252372325Y-91512500D02*
G75*
G03*
X251872375Y-91012500I-500000J0D01*
G01*
X245372425Y-105512500D02*
G75*
G03*
X245872375Y-106012500I500000J0D01*
G01*
X251872375Y-106012550D02*
G75*
G03*
X252372375Y-105512500I-50J500050D01*
G01*
X245372375Y-105512500D02*
X245372375Y-91512500D01*
X252372375Y-105512500D02*
X252372375Y-91512500D01*
X251872375Y-91012500D02*
X245872375Y-91012500D01*
X251872375Y-106012500D02*
X245872375Y-106012500D01*
X243434375Y-107012550D02*
G75*
G03*
X243934375Y-106512500I-50J500050D01*
G01*
X229934425Y-106512500D02*
G75*
G03*
X230434375Y-107012500I500000J0D01*
G01*
X243934325Y-93512500D02*
G75*
G03*
X243434375Y-93012500I-500000J0D01*
G01*
X230434375Y-93012450D02*
G75*
G03*
X229934375Y-93512500I50J-500050D01*
G01*
X243934375Y-93512500D02*
X243934375Y-106512500D01*
X229934375Y-93512500D02*
X229934375Y-106512500D01*
X230434375Y-107012500D02*
X243434375Y-107012500D01*
X230434375Y-93012500D02*
X243434375Y-93012500D01*
X231528125Y-107012500D02*
G75*
G03*
X232028125Y-106512500I0J500000D01*
G01*
X218028125Y-106512500D02*
G75*
G03*
X218528125Y-107012500I500000J0D01*
G01*
X232028125Y-93512500D02*
G75*
G03*
X231528125Y-93012500I-500000J0D01*
G01*
X218528125Y-93012500D02*
G75*
G03*
X218028125Y-93512500I0J-500000D01*
G01*
X232028125Y-93512500D02*
X232028125Y-106512500D01*
X218028125Y-93512500D02*
X218028125Y-106512500D01*
X218528125Y-107012500D02*
X231528125Y-107012500D01*
X218528125Y-93012500D02*
X231528125Y-93012500D01*
X212478125Y-107012500D02*
G75*
G03*
X212978125Y-106512500I0J500000D01*
G01*
X198978125Y-106512500D02*
G75*
G03*
X199478125Y-107012500I500000J0D01*
G01*
X212978125Y-93512500D02*
G75*
G03*
X212478125Y-93012500I-500000J0D01*
G01*
X199478125Y-93012500D02*
G75*
G03*
X198978125Y-93512500I0J-500000D01*
G01*
X212978125Y-93512500D02*
X212978125Y-106512500D01*
X198978125Y-93512500D02*
X198978125Y-106512500D01*
X199478125Y-107012500D02*
X212478125Y-107012500D01*
X199478125Y-93012500D02*
X212478125Y-93012500D01*
X193428125Y-107012500D02*
G75*
G03*
X193928125Y-106512500I0J500000D01*
G01*
X179928125Y-106512500D02*
G75*
G03*
X180428125Y-107012500I500000J0D01*
G01*
X193928125Y-93512500D02*
G75*
G03*
X193428125Y-93012500I-500000J0D01*
G01*
X180428125Y-93012500D02*
G75*
G03*
X179928125Y-93512500I0J-500000D01*
G01*
X193928125Y-93512500D02*
X193928125Y-106512500D01*
X179928125Y-93512500D02*
X179928125Y-106512500D01*
X180428125Y-107012500D02*
X193428125Y-107012500D01*
X180428125Y-93012500D02*
X193428125Y-93012500D01*
X174378125Y-107012500D02*
G75*
G03*
X174878125Y-106512500I0J500000D01*
G01*
X160878125Y-106512500D02*
G75*
G03*
X161378125Y-107012500I500000J0D01*
G01*
X174878125Y-93512500D02*
G75*
G03*
X174378125Y-93012500I-500000J0D01*
G01*
X161378125Y-93012500D02*
G75*
G03*
X160878125Y-93512500I0J-500000D01*
G01*
X174878125Y-93512500D02*
X174878125Y-106512500D01*
X160878125Y-93512500D02*
X160878125Y-106512500D01*
X161378125Y-107012500D02*
X174378125Y-107012500D01*
X161378125Y-93012500D02*
X174378125Y-93012500D01*
X155328125Y-107012500D02*
G75*
G03*
X155828125Y-106512500I0J500000D01*
G01*
X141828125Y-106512500D02*
G75*
G03*
X142328125Y-107012500I500000J0D01*
G01*
X155828125Y-93512500D02*
G75*
G03*
X155328125Y-93012500I-500000J0D01*
G01*
X142328125Y-93012500D02*
G75*
G03*
X141828125Y-93512500I0J-500000D01*
G01*
X155828125Y-93512500D02*
X155828125Y-106512500D01*
X141828125Y-93512500D02*
X141828125Y-106512500D01*
X142328125Y-107012500D02*
X155328125Y-107012500D01*
X142328125Y-93012500D02*
X155328125Y-93012500D01*
X136278125Y-107012500D02*
G75*
G03*
X136778125Y-106512500I0J500000D01*
G01*
X122778125Y-106512500D02*
G75*
G03*
X123278125Y-107012500I500000J0D01*
G01*
X136778125Y-93512500D02*
G75*
G03*
X136278125Y-93012500I-500000J0D01*
G01*
X123278125Y-93012500D02*
G75*
G03*
X122778125Y-93512500I0J-500000D01*
G01*
X136778125Y-93512500D02*
X136778125Y-106512500D01*
X122778125Y-93512500D02*
X122778125Y-106512500D01*
X123278125Y-107012500D02*
X136278125Y-107012500D01*
X123278125Y-93012500D02*
X136278125Y-93012500D01*
X117228125Y-107012500D02*
G75*
G03*
X117728125Y-106512500I0J500000D01*
G01*
X103728125Y-106512500D02*
G75*
G03*
X104228125Y-107012500I500000J0D01*
G01*
X117728125Y-93512500D02*
G75*
G03*
X117228125Y-93012500I-500000J0D01*
G01*
X104228125Y-93012500D02*
G75*
G03*
X103728125Y-93512500I0J-500000D01*
G01*
X117728125Y-93512500D02*
X117728125Y-106512500D01*
X103728125Y-93512500D02*
X103728125Y-106512500D01*
X104228125Y-107012500D02*
X117228125Y-107012500D01*
X104228125Y-93012500D02*
X117228125Y-93012500D01*
X98178125Y-107012500D02*
G75*
G03*
X98678125Y-106512500I0J500000D01*
G01*
X84678125Y-106512500D02*
G75*
G03*
X85178125Y-107012500I500000J0D01*
G01*
X98678125Y-93512500D02*
G75*
G03*
X98178125Y-93012500I-500000J0D01*
G01*
X85178125Y-93012500D02*
G75*
G03*
X84678125Y-93512500I0J-500000D01*
G01*
X98678125Y-93512500D02*
X98678125Y-106512500D01*
X84678125Y-93512500D02*
X84678125Y-106512500D01*
X85178125Y-107012500D02*
X98178125Y-107012500D01*
X85178125Y-93012500D02*
X98178125Y-93012500D01*
X79128125Y-107012500D02*
G75*
G03*
X79628125Y-106512500I0J500000D01*
G01*
X65628125Y-106512500D02*
G75*
G03*
X66128125Y-107012500I500000J0D01*
G01*
X79628125Y-93512500D02*
G75*
G03*
X79128125Y-93012500I-500000J0D01*
G01*
X66128125Y-93012500D02*
G75*
G03*
X65628125Y-93512500I0J-500000D01*
G01*
X79628125Y-93512500D02*
X79628125Y-106512500D01*
X65628125Y-93512500D02*
X65628125Y-106512500D01*
X66128125Y-107012500D02*
X79128125Y-107012500D01*
X66128125Y-93012500D02*
X79128125Y-93012500D01*
X52934375Y-107012550D02*
G75*
G03*
X53434375Y-106512500I-50J500050D01*
G01*
X39434425Y-106512500D02*
G75*
G03*
X39934375Y-107012500I500000J0D01*
G01*
X53434325Y-93512500D02*
G75*
G03*
X52934375Y-93012500I-500000J0D01*
G01*
X39934375Y-93012450D02*
G75*
G03*
X39434375Y-93512500I50J-500050D01*
G01*
X53434375Y-93512500D02*
X53434375Y-106512500D01*
X39434375Y-93512500D02*
X39434375Y-106512500D01*
X39934375Y-107012500D02*
X52934375Y-107012500D01*
X39934375Y-93012500D02*
X52934375Y-93012500D01*
X248196875Y-87962550D02*
G75*
G03*
X248696875Y-87462500I-50J500050D01*
G01*
X234696925Y-87462500D02*
G75*
G03*
X235196875Y-87962500I500000J0D01*
G01*
X248696825Y-74462500D02*
G75*
G03*
X248196875Y-73962500I-500000J0D01*
G01*
X235196875Y-73962450D02*
G75*
G03*
X234696875Y-74462500I50J-500050D01*
G01*
X248696875Y-74462500D02*
X248696875Y-87462500D01*
X234696875Y-74462500D02*
X234696875Y-87462500D01*
X235196875Y-87962500D02*
X248196875Y-87962500D01*
X235196875Y-73962500D02*
X248196875Y-73962500D01*
X222003125Y-87962500D02*
G75*
G03*
X222503125Y-87462500I0J500000D01*
G01*
X208503125Y-87462500D02*
G75*
G03*
X209003125Y-87962500I500000J0D01*
G01*
X222503125Y-74462500D02*
G75*
G03*
X222003125Y-73962500I-500000J0D01*
G01*
X209003125Y-73962500D02*
G75*
G03*
X208503125Y-74462500I0J-500000D01*
G01*
X222503125Y-74462500D02*
X222503125Y-87462500D01*
X208503125Y-74462500D02*
X208503125Y-87462500D01*
X209003125Y-87962500D02*
X222003125Y-87962500D01*
X209003125Y-73962500D02*
X222003125Y-73962500D01*
X202953125Y-87962500D02*
G75*
G03*
X203453125Y-87462500I0J500000D01*
G01*
X189453125Y-87462500D02*
G75*
G03*
X189953125Y-87962500I500000J0D01*
G01*
X203453125Y-74462500D02*
G75*
G03*
X202953125Y-73962500I-500000J0D01*
G01*
X189953125Y-73962500D02*
G75*
G03*
X189453125Y-74462500I0J-500000D01*
G01*
X203453125Y-74462500D02*
X203453125Y-87462500D01*
X189453125Y-74462500D02*
X189453125Y-87462500D01*
X189953125Y-87962500D02*
X202953125Y-87962500D01*
X189953125Y-73962500D02*
X202953125Y-73962500D01*
X183903125Y-87962500D02*
G75*
G03*
X184403125Y-87462500I0J500000D01*
G01*
X170403125Y-87462500D02*
G75*
G03*
X170903125Y-87962500I500000J0D01*
G01*
X184403125Y-74462500D02*
G75*
G03*
X183903125Y-73962500I-500000J0D01*
G01*
X170903125Y-73962500D02*
G75*
G03*
X170403125Y-74462500I0J-500000D01*
G01*
X184403125Y-74462500D02*
X184403125Y-87462500D01*
X170403125Y-74462500D02*
X170403125Y-87462500D01*
X170903125Y-87962500D02*
X183903125Y-87962500D01*
X170903125Y-73962500D02*
X183903125Y-73962500D01*
X164853125Y-87962500D02*
G75*
G03*
X165353125Y-87462500I0J500000D01*
G01*
X151353125Y-87462500D02*
G75*
G03*
X151853125Y-87962500I500000J0D01*
G01*
X165353125Y-74462500D02*
G75*
G03*
X164853125Y-73962500I-500000J0D01*
G01*
X151853125Y-73962500D02*
G75*
G03*
X151353125Y-74462500I0J-500000D01*
G01*
X165353125Y-74462500D02*
X165353125Y-87462500D01*
X151353125Y-74462500D02*
X151353125Y-87462500D01*
X151853125Y-87962500D02*
X164853125Y-87962500D01*
X151853125Y-73962500D02*
X164853125Y-73962500D01*
X145803125Y-87962500D02*
G75*
G03*
X146303125Y-87462500I0J500000D01*
G01*
X132303125Y-87462500D02*
G75*
G03*
X132803125Y-87962500I500000J0D01*
G01*
X146303125Y-74462500D02*
G75*
G03*
X145803125Y-73962500I-500000J0D01*
G01*
X132803125Y-73962500D02*
G75*
G03*
X132303125Y-74462500I0J-500000D01*
G01*
X146303125Y-74462500D02*
X146303125Y-87462500D01*
X132303125Y-74462500D02*
X132303125Y-87462500D01*
X132803125Y-87962500D02*
X145803125Y-87962500D01*
X132803125Y-73962500D02*
X145803125Y-73962500D01*
X126753125Y-87962500D02*
G75*
G03*
X127253125Y-87462500I0J500000D01*
G01*
X113253125Y-87462500D02*
G75*
G03*
X113753125Y-87962500I500000J0D01*
G01*
X127253125Y-74462500D02*
G75*
G03*
X126753125Y-73962500I-500000J0D01*
G01*
X113753125Y-73962500D02*
G75*
G03*
X113253125Y-74462500I0J-500000D01*
G01*
X127253125Y-74462500D02*
X127253125Y-87462500D01*
X113253125Y-74462500D02*
X113253125Y-87462500D01*
X113753125Y-87962500D02*
X126753125Y-87962500D01*
X113753125Y-73962500D02*
X126753125Y-73962500D01*
X107703125Y-87962500D02*
G75*
G03*
X108203125Y-87462500I0J500000D01*
G01*
X94203125Y-87462500D02*
G75*
G03*
X94703125Y-87962500I500000J0D01*
G01*
X108203125Y-74462500D02*
G75*
G03*
X107703125Y-73962500I-500000J0D01*
G01*
X94703125Y-73962500D02*
G75*
G03*
X94203125Y-74462500I0J-500000D01*
G01*
X108203125Y-74462500D02*
X108203125Y-87462500D01*
X94203125Y-74462500D02*
X94203125Y-87462500D01*
X94703125Y-87962500D02*
X107703125Y-87962500D01*
X94703125Y-73962500D02*
X107703125Y-73962500D01*
X88653125Y-87962500D02*
G75*
G03*
X89153125Y-87462500I0J500000D01*
G01*
X75153125Y-87462500D02*
G75*
G03*
X75653125Y-87962500I500000J0D01*
G01*
X89153125Y-74462500D02*
G75*
G03*
X88653125Y-73962500I-500000J0D01*
G01*
X75653125Y-73962500D02*
G75*
G03*
X75153125Y-74462500I0J-500000D01*
G01*
X89153125Y-74462500D02*
X89153125Y-87462500D01*
X75153125Y-74462500D02*
X75153125Y-87462500D01*
X75653125Y-87962500D02*
X88653125Y-87962500D01*
X75653125Y-73962500D02*
X88653125Y-73962500D01*
X69603125Y-87962500D02*
G75*
G03*
X70103125Y-87462500I0J500000D01*
G01*
X56103125Y-87462500D02*
G75*
G03*
X56603125Y-87962500I500000J0D01*
G01*
X70103125Y-74462500D02*
G75*
G03*
X69603125Y-73962500I-500000J0D01*
G01*
X56603125Y-73962500D02*
G75*
G03*
X56103125Y-74462500I0J-500000D01*
G01*
X70103125Y-74462500D02*
X70103125Y-87462500D01*
X56103125Y-74462500D02*
X56103125Y-87462500D01*
X56603125Y-87962500D02*
X69603125Y-87962500D01*
X56603125Y-73962500D02*
X69603125Y-73962500D01*
X48171875Y-87962550D02*
G75*
G03*
X48671875Y-87462500I-50J500050D01*
G01*
X34671875Y-87462500D02*
G75*
G03*
X35171875Y-87962500I500000J0D01*
G01*
X48671825Y-74462500D02*
G75*
G03*
X48171875Y-73962500I-500000J0D01*
G01*
X35171875Y-73962500D02*
G75*
G03*
X34671875Y-74462500I0J-500000D01*
G01*
X48671875Y-74462500D02*
X48671875Y-87462500D01*
X34671875Y-74462500D02*
X34671875Y-87462500D01*
X35171875Y-87962500D02*
X48171875Y-87962500D01*
X35171875Y-73962500D02*
X48171875Y-73962500D01*
X255340625Y-68912500D02*
G75*
G03*
X255840625Y-68412500I0J500000D01*
G01*
X241840625Y-68412500D02*
G75*
G03*
X242340625Y-68912500I500000J0D01*
G01*
X255840625Y-55412500D02*
G75*
G03*
X255340625Y-54912500I-500000J0D01*
G01*
X242340625Y-54912500D02*
G75*
G03*
X241840625Y-55412500I0J-500000D01*
G01*
X255840625Y-55412500D02*
X255840625Y-68412500D01*
X241840625Y-55412500D02*
X241840625Y-68412500D01*
X242340625Y-68912500D02*
X255340625Y-68912500D01*
X242340625Y-54912500D02*
X255340625Y-54912500D01*
X236290625Y-68912500D02*
G75*
G03*
X236790625Y-68412500I0J500000D01*
G01*
X222790625Y-68412500D02*
G75*
G03*
X223290625Y-68912500I500000J0D01*
G01*
X236790625Y-55412500D02*
G75*
G03*
X236290625Y-54912500I-500000J0D01*
G01*
X223290625Y-54912500D02*
G75*
G03*
X222790625Y-55412500I0J-500000D01*
G01*
X236790625Y-55412500D02*
X236790625Y-68412500D01*
X222790625Y-55412500D02*
X222790625Y-68412500D01*
X223290625Y-68912500D02*
X236290625Y-68912500D01*
X223290625Y-54912500D02*
X236290625Y-54912500D01*
X217240625Y-68912500D02*
G75*
G03*
X217740625Y-68412500I0J500000D01*
G01*
X203740625Y-68412500D02*
G75*
G03*
X204240625Y-68912500I500000J0D01*
G01*
X217740625Y-55412500D02*
G75*
G03*
X217240625Y-54912500I-500000J0D01*
G01*
X204240625Y-54912500D02*
G75*
G03*
X203740625Y-55412500I0J-500000D01*
G01*
X217740625Y-55412500D02*
X217740625Y-68412500D01*
X203740625Y-55412500D02*
X203740625Y-68412500D01*
X204240625Y-68912500D02*
X217240625Y-68912500D01*
X204240625Y-54912500D02*
X217240625Y-54912500D01*
X198190625Y-68912500D02*
G75*
G03*
X198690625Y-68412500I0J500000D01*
G01*
X184690625Y-68412500D02*
G75*
G03*
X185190625Y-68912500I500000J0D01*
G01*
X198690625Y-55412500D02*
G75*
G03*
X198190625Y-54912500I-500000J0D01*
G01*
X185190625Y-54912500D02*
G75*
G03*
X184690625Y-55412500I0J-500000D01*
G01*
X198690625Y-55412500D02*
X198690625Y-68412500D01*
X184690625Y-55412500D02*
X184690625Y-68412500D01*
X185190625Y-68912500D02*
X198190625Y-68912500D01*
X185190625Y-54912500D02*
X198190625Y-54912500D01*
X179140625Y-68912500D02*
G75*
G03*
X179640625Y-68412500I0J500000D01*
G01*
X165640625Y-68412500D02*
G75*
G03*
X166140625Y-68912500I500000J0D01*
G01*
X179640625Y-55412500D02*
G75*
G03*
X179140625Y-54912500I-500000J0D01*
G01*
X166140625Y-54912500D02*
G75*
G03*
X165640625Y-55412500I0J-500000D01*
G01*
X179640625Y-55412500D02*
X179640625Y-68412500D01*
X165640625Y-55412500D02*
X165640625Y-68412500D01*
X166140625Y-68912500D02*
X179140625Y-68912500D01*
X166140625Y-54912500D02*
X179140625Y-54912500D01*
X160090625Y-68912500D02*
G75*
G03*
X160590625Y-68412500I0J500000D01*
G01*
X146590625Y-68412500D02*
G75*
G03*
X147090625Y-68912500I500000J0D01*
G01*
X160590625Y-55412500D02*
G75*
G03*
X160090625Y-54912500I-500000J0D01*
G01*
X147090625Y-54912500D02*
G75*
G03*
X146590625Y-55412500I0J-500000D01*
G01*
X160590625Y-55412500D02*
X160590625Y-68412500D01*
X146590625Y-55412500D02*
X146590625Y-68412500D01*
X147090625Y-68912500D02*
X160090625Y-68912500D01*
X147090625Y-54912500D02*
X160090625Y-54912500D01*
X141040625Y-68912500D02*
G75*
G03*
X141540625Y-68412500I0J500000D01*
G01*
X127540625Y-68412500D02*
G75*
G03*
X128040625Y-68912500I500000J0D01*
G01*
X141540625Y-55412500D02*
G75*
G03*
X141040625Y-54912500I-500000J0D01*
G01*
X128040625Y-54912500D02*
G75*
G03*
X127540625Y-55412500I0J-500000D01*
G01*
X141540625Y-55412500D02*
X141540625Y-68412500D01*
X127540625Y-55412500D02*
X127540625Y-68412500D01*
X128040625Y-68912500D02*
X141040625Y-68912500D01*
X128040625Y-54912500D02*
X141040625Y-54912500D01*
X121990625Y-68912500D02*
G75*
G03*
X122490625Y-68412500I0J500000D01*
G01*
X108490625Y-68412500D02*
G75*
G03*
X108990625Y-68912500I500000J0D01*
G01*
X122490625Y-55412500D02*
G75*
G03*
X121990625Y-54912500I-500000J0D01*
G01*
X108990625Y-54912500D02*
G75*
G03*
X108490625Y-55412500I0J-500000D01*
G01*
X122490625Y-55412500D02*
X122490625Y-68412500D01*
X108490625Y-55412500D02*
X108490625Y-68412500D01*
X108990625Y-68912500D02*
X121990625Y-68912500D01*
X108990625Y-54912500D02*
X121990625Y-54912500D01*
X102940625Y-68912500D02*
G75*
G03*
X103440625Y-68412500I0J500000D01*
G01*
X89440625Y-68412500D02*
G75*
G03*
X89940625Y-68912500I500000J0D01*
G01*
X103440625Y-55412500D02*
G75*
G03*
X102940625Y-54912500I-500000J0D01*
G01*
X89940625Y-54912500D02*
G75*
G03*
X89440625Y-55412500I0J-500000D01*
G01*
X103440625Y-55412500D02*
X103440625Y-68412500D01*
X89440625Y-55412500D02*
X89440625Y-68412500D01*
X89940625Y-68912500D02*
X102940625Y-68912500D01*
X89940625Y-54912500D02*
X102940625Y-54912500D01*
X83890625Y-68912500D02*
G75*
G03*
X84390625Y-68412500I0J500000D01*
G01*
X70390625Y-68412500D02*
G75*
G03*
X70890625Y-68912500I500000J0D01*
G01*
X84390625Y-55412500D02*
G75*
G03*
X83890625Y-54912500I-500000J0D01*
G01*
X70890625Y-54912500D02*
G75*
G03*
X70390625Y-55412500I0J-500000D01*
G01*
X84390625Y-55412500D02*
X84390625Y-68412500D01*
X70390625Y-55412500D02*
X70390625Y-68412500D01*
X70890625Y-68912500D02*
X83890625Y-68912500D01*
X70890625Y-54912500D02*
X83890625Y-54912500D01*
X64840625Y-68912500D02*
G75*
G03*
X65340625Y-68412500I0J500000D01*
G01*
X51340625Y-68412500D02*
G75*
G03*
X51840625Y-68912500I500000J0D01*
G01*
X65340625Y-55412500D02*
G75*
G03*
X64840625Y-54912500I-500000J0D01*
G01*
X51840625Y-54912500D02*
G75*
G03*
X51340625Y-55412500I0J-500000D01*
G01*
X65340625Y-55412500D02*
X65340625Y-68412500D01*
X51340625Y-55412500D02*
X51340625Y-68412500D01*
X51840625Y-68912500D02*
X64840625Y-68912500D01*
X51840625Y-54912500D02*
X64840625Y-54912500D01*
X45790625Y-68912500D02*
G75*
G03*
X46290625Y-68412500I0J500000D01*
G01*
X32290625Y-68412500D02*
G75*
G03*
X32790625Y-68912500I500000J0D01*
G01*
X46290625Y-55412500D02*
G75*
G03*
X45790625Y-54912500I-500000J0D01*
G01*
X32790625Y-54912500D02*
G75*
G03*
X32290625Y-55412500I0J-500000D01*
G01*
X46290625Y-55412500D02*
X46290625Y-68412500D01*
X32290625Y-55412500D02*
X32290625Y-68412500D01*
X32790625Y-68912500D02*
X45790625Y-68912500D01*
X32790625Y-54912500D02*
X45790625Y-54912500D01*
M02*
